<svg xmlns="http://www.w3.org/2000/svg" xmlns:xlink="http://www.w3.org/1999/xlink" width="89" height="88" viewBox="0 0 89 88">
    <defs>
        <path id="a" d="M0 0h93v92H0z"/>
    </defs>
    <g fill="none" fill-rule="evenodd" transform="translate(-2 -2)">
        <mask id="b" fill="#fff">
            <use xlink:href="#a"/>
        </mask>
        <path fill="#FFF" d="M61.198 48.403a2.775 2.775 0 1 1-5.55-.001 2.775 2.775 0 0 1 5.55 0z" mask="url(#b)"/>
        <path fill="#FFF" d="M86.123 61.321c-4.037-1.76-8.106-2.582-11.91-2.844 2.216-5.185 3.655-10.652 4.145-15.862 7.475-3.451 12.24-10.831 12.24-19.153 0-11.64-9.471-21.11-21.11-21.11A21.094 21.094 0 0 0 51.05 13.18a72.385 72.385 0 0 0-5.044-.17 72.45 72.45 0 0 0-4.478.137A21.092 21.092 0 0 0 23.11 2.352C11.47 2.352 2 11.822 2 23.462c0 8.091 4.504 15.294 11.625 18.858.463 5.312 1.924 10.906 4.192 16.2-3.639.303-7.507 1.129-11.342 2.801a2.426 2.426 0 1 0 1.94 4.45c3.943-1.72 7.985-2.392 11.702-2.495a53.718 53.718 0 0 0 2.5 4.154 49.501 49.501 0 0 0 1.703 2.402c-4.942 2.036-10.47 5.328-14.883 10.639a2.427 2.427 0 1 0 3.733 3.104c4.23-5.088 9.778-8.07 14.49-9.803 2.922 3.044 6.071 5.344 9.347 6.835.77 4.33 4.112 9.393 8.999 9.393 4.888 0 8.23-5.063 9-9.393 3.336-1.519 6.539-3.875 9.506-7.003 4.792 1.704 10.542 4.711 14.915 9.97a2.424 2.424 0 0 0 3.418.315 2.428 2.428 0 0 0 .315-3.418C78.613 75 72.884 71.67 67.83 69.65a49.25 49.25 0 0 0 1.565-2.221 53.406 53.406 0 0 0 2.513-4.176c3.866.051 8.117.705 12.274 2.517a2.428 2.428 0 0 0 1.94-4.45zM69.28 7.352c8.668 0 15.72 7.205 15.72 16.059 0 5.228-2.42 9.97-6.4 12.941-.728-8.192-4.191-14.401-10.325-18.484-3.12-2.078-6.857-3.565-11.275-4.487 2.939-3.754 7.423-6.029 12.28-6.029zm-56.43 28C9.198 32.422 7 27.976 7 23.099c0-8.682 7.075-15.747 15.769-15.747 4.824 0 9.282 2.19 12.231 5.806-4.663.894-8.585 2.387-11.837 4.505-6.04 3.93-9.498 9.872-10.313 17.689zm33.105 51.004c-1.467 0-3.978-3.304-3.978-6.135 0-.471.083-.686.106-.718.006-.005.76-1.937 4.012-1.937 3.25 0 3.675 1.932 3.679 1.937.024.032.105.247.105.718 0 2.83-2.458 6.135-3.924 6.135zm22.776-27.63c-7.28.634-12.514 2.728-12.894 2.884a2.534 2.534 0 0 0-1.393 3.322 2.567 2.567 0 0 0 3.353 1.38c.067-.027 3.136-1.256 7.751-2.035l-.15.23a42.948 42.948 0 0 1-2.841 3.77c-3.597-.888-6.098-1.093-6.367-1.113a2.563 2.563 0 0 0-2.752 2.348c-.105 1.402.957 2.622 2.37 2.727.038.003.947.076 2.441.339a25.527 25.527 0 0 1-4.063 2.774 6.756 6.756 0 0 0-2.07-1.692c-1.523-.813-3.466-1.192-6.114-1.192-2.647 0-4.59.379-6.111 1.192a6.747 6.747 0 0 0-2.07 1.692 25.475 25.475 0 0 1-3.946-2.676c1.79-.34 2.902-.434 2.944-.437 1.412-.107 2.47-1.327 2.365-2.727-.105-1.401-1.34-2.452-2.75-2.348-.282.021-3.007.245-6.877 1.241a42.942 42.942 0 0 1-2.95-3.897c-.073-.109-.142-.217-.215-.325 4.981.761 8.353 2.097 8.437 2.13a2.57 2.57 0 0 0 3.35-1.382 2.537 2.537 0 0 0-1.393-3.32c-.393-.161-5.923-2.375-13.538-2.935-3.041-6.179-5.028-14.586-5.244-20.715-.12-8.026 2.391-18.453 21.58-20.317a67.606 67.606 0 0 1 6.418-.292C71.097 17.352 74 29.114 74 37.962c0 6.52-1.952 14.044-5.269 20.764z" mask="url(#b)"/>
        <path fill="#FFF" d="M37.096 48.403a2.775 2.775 0 1 1-5.55 0 2.775 2.775 0 0 1 5.55 0z" mask="url(#b)"/>
    </g>
</svg>
