<svg xmlns="http://www.w3.org/2000/svg" width="48" height="48" viewBox="0 0 48 48">
    <g fill="none" fill-rule="evenodd">
        <g stroke="#36AC7E" stroke-width="2" transform="translate(1 6)">
            <rect width="44" height="34" x="1" y="1" rx="6"/>
            <path stroke-linecap="square" d="M23 2v32.049"/>
        </g>
        <text fill="#6DD8AF" font-family="AvenirNext-Medium, Avenir Next" font-size="20.769" font-weight="400" letter-spacing="-.26">
            <tspan x="5.996" y="31">A</tspan>
        </text>
        <path fill="#6DD8AF" d="M29.674 29.58l1.75.997-2.03 1.476zM32.306 29.701l-2.304-1.313 6.106-10.443 2.304 1.314zM39.613 17.206l-.596 1.019-2.304-1.314.596-1.019a1.32 1.32 0 0 1 .807-.612 1.336 1.336 0 0 1 1.63.929 1.29 1.29 0 0 1-.133.997z"/>
        <path fill="#36AC7E" fill-rule="nonzero" d="M39.73 14.377a2.551 2.551 0 0 0-1.927-.25 2.519 2.519 0 0 0-1.542 1.168l-7.609 13.013a.593.593 0 0 0-.077.232l-.536 4.737a.595.595 0 0 0 .299.583.61.61 0 0 0 .66-.036l3.888-2.826a.599.599 0 0 0 .165-.183l7.609-13.012a2.493 2.493 0 0 0-.93-3.426zM29.674 29.58l1.75.997-2.03 1.476.28-2.473zm2.632.121l-2.304-1.313 6.106-10.443 2.304 1.314L32.306 29.7zm7.307-12.495l-.596 1.019-2.304-1.314.596-1.019a1.32 1.32 0 0 1 .807-.612 1.336 1.336 0 0 1 1.63.929 1.29 1.29 0 0 1-.133.997z"/>
    </g>
</svg>
