<svg xmlns="http://www.w3.org/2000/svg" xmlns:xlink="http://www.w3.org/1999/xlink" width="48" height="48" viewBox="0 0 48 48">
    <defs>
        <path id="a" d="M0 0h42v43H0z"/>
    </defs>
    <g fill="none" fill-rule="evenodd">
        <g transform="translate(3 3)">
            <mask id="b" fill="#fff">
                <use xlink:href="#a"/>
            </mask>
            <path fill="#FF7F91" d="M28.908 1c-6.634 0-12.031 5.397-12.031 12.03 0 4.236 2.246 8.176 5.879 10.341l1.16 3.253v2.492c0 1.5 1.13 2.946 1.179 3.007a.651.651 0 0 0 .51.247h6.605c.2 0 .388-.09.511-.247.048-.06 1.178-1.507 1.178-3.007v-2.492l1.161-3.253a12.063 12.063 0 0 0 5.88-10.34C40.94 6.397 35.541 1 28.907 1z" mask="url(#b)"/>
            <path fill="#FFF" d="M1 24h11l12 10h10l1 7H19L5 32H1z" mask="url(#b)"/>
            <path fill="#C25060" stroke="#C25060" stroke-width=".5" d="M32.956 33.672h-6.677a.65.65 0 1 0 0 1.302h6.677a1.372 1.372 0 0 1 1.296 1.813 2.655 2.655 0 0 0-1.296-.337h-9.119a2.677 2.677 0 0 0-.404-3.26l-7.653-7.653c-1.105-1.104-3.194-1.97-4.757-1.97H1.651a.651.651 0 0 0 0 1.302h9.372c1.218 0 2.975.728 3.836 1.589l7.653 7.653a1.372 1.372 0 0 1 0 1.938 1.372 1.372 0 0 1-1.938 0l-6.22-6.22a.65.65 0 1 0-.92.92l6.22 6.22a2.663 2.663 0 0 0 1.841.78l.048.003h11.413c.755 0 1.37.615 1.37 1.37 0 .756-.615 1.37-1.37 1.37l-12.744-.01c-.346 0-.933-.154-1.241-.323l-12.955-8a.598.598 0 0 0-.023-.013c-.501-.282-1.313-.494-1.889-.494H1.651a.651.651 0 0 0 0 1.302h2.453c.346 0 .933.152 1.24.321l12.955 8 .023.013c.502.282 1.314.495 1.889.495l12.745.012a2.675 2.675 0 0 0 2.672-2.673c0-.508-.142-.983-.39-1.388a2.675 2.675 0 0 0-2.283-4.062" mask="url(#b)"/>
            <path fill="#C25060" stroke="#C25060" stroke-width=".5" d="M34.205 22.363a.65.65 0 0 0-.291.347l-1.125 3.15h-7.762l-1.125-3.15a.651.651 0 0 0-.29-.347 10.76 10.76 0 0 1-5.433-9.332c0-5.916 4.813-10.73 10.729-10.73 5.916 0 10.73 4.814 10.73 10.73 0 3.85-2.082 7.426-5.433 9.332zm-2.33 8.705H25.94c-.206-.31-.476-.796-.62-1.302h7.175c-.144.505-.414.99-.62 1.302zm-6.656-2.603h7.378v-1.302H25.22v1.302zM28.908 1c-6.634 0-12.031 5.397-12.031 12.03 0 4.236 2.246 8.176 5.879 10.341l1.16 3.253v2.492c0 1.5 1.13 2.946 1.179 3.007a.651.651 0 0 0 .51.247h6.605c.2 0 .388-.09.511-.247.048-.06 1.178-1.507 1.178-3.007v-2.492l1.161-3.253a12.063 12.063 0 0 0 5.88-10.34C40.94 6.397 35.541 1 28.907 1z" mask="url(#b)"/>
        </g>
        <path fill="#C25060" stroke="#C25060" stroke-width=".5" d="M33.787 21.099a2.383 2.383 0 0 0-3.758 0l-1.245-3.486a5.796 5.796 0 0 1 3.124-.904c1.12 0 2.192.31 3.125.902l-1.246 3.488zm-2.964 1.686v-.217a1.086 1.086 0 0 1 2.17 0v.217h-2.17zm5.382-5.945a7.096 7.096 0 0 0-4.297-1.433 7.095 7.095 0 0 0-4.296 1.435.651.651 0 0 0-.222.739l2.131 5.967v3.36a.65.65 0 1 0 1.302 0v-2.821h2.17v2.82a.65.65 0 1 0 1.302 0V23.55l2.132-5.97a.651.651 0 0 0-.222-.74z"/>
    </g>
</svg>
