<svg xmlns="http://www.w3.org/2000/svg" width="48" height="48" viewBox="0 0 48 48">
    <g fill="none" fill-rule="evenodd" stroke="#D1BE53" stroke-width="2">
        <g stroke-linecap="square">
            <path d="M14.338 33.96l17.625 3.486M14 45l.338-11.04M2.587 38.608l11.75-4.649M4.938 24.662l9.4 9.297M14.338 33.96l16.45-15.109M43.712 30.31l-10.575-8.134M44.413 14.203L29.138 18.85M16.863 12.716l10.575 6.973M29.788 3.581v11.622"/>
        </g>
        <g fill="#FFE159" transform="translate(1 1)">
            <ellipse cx="12.993" cy="44" rx="1.993" ry="2"/>
            <ellipse cx="16.491" cy="11.5" rx="2.491" ry="2.5"/>
            <ellipse cx="42.306" cy="13.925" rx="2.989" ry="3"/>
            <ellipse cx="42.794" cy="30.025" rx="2.989" ry="3"/>
            <ellipse cx="29.989" cy="36" rx="2.989" ry="3"/>
            <ellipse cx="12.85" cy="33.05" rx="4.484" ry="4.5"/>
            <ellipse cx="3.662" cy="23.825" rx="2.491" ry="2.5"/>
            <ellipse cx="1.993" cy="37.6" rx="1.993" ry="2"/>
            <ellipse cx="28.854" cy="2.938" rx="2.927" ry="2.938"/>
            <ellipse cx="28.564" cy="18.1" rx="5.978" ry="6"/>
        </g>
    </g>
</svg>
