<svg xmlns="http://www.w3.org/2000/svg" width="48" height="48" viewBox="0 0 48 48">
    <path fill="#76E1F4" fill-rule="nonzero" stroke="#549EAB" stroke-linecap="round" stroke-linejoin="round" stroke-width="2" d="M19.946 42.998l1.738-10.024c-1.312-.9-2.184-2.278-2.184-3.975 0-2.762 2.14-4.999 4.953-4.999 2.798 0 5.073 2.237 5.073 4.999 0 1.697-.892 3.074-2.206 3.975L29.297 43l8.5-.03c.119-.231.193-.493.193-.773L37.993 25H44l-6.748-6.952a.748.748 0 0 0 .153-.432v-9.4c0-.425-.35-.77-.78-.77H31.36a.774.774 0 0 0-.78.77v3.006L24.5 5 5 25h6.116v17.197c0 .291.08.564.212.803l8.618-.002z"/>
</svg>
