<svg xmlns="http://www.w3.org/2000/svg" width="48" height="48" viewBox="0 0 48 48">
    <g fill="none" fill-rule="evenodd" stroke="#468DE7">
        <path stroke-width="2.047" d="M44.977 24c0-11.559-9.4-20.977-20.977-20.977C12.424 3.023 3.023 12.441 3.023 24c0 11.538 9.44 20.977 20.977 20.977 11.538 0 20.977-9.44 20.977-20.977z"/>
        <path fill="#96C7FF" fill-rule="nonzero" stroke-width="1.596" d="M24.483 8.202c2.298 0 4.158 1.834 4.158 4.112 0 2.277-1.86 4.111-4.158 4.111s-4.158-1.834-4.158-4.111c0-2.237 1.878-4.112 4.158-4.112zm-2.637 30.07a2.484 2.484 0 0 1-2.283 1.467c-.366 0-.726-.089-1.054-.25-1.3-.6-1.838-2.084-1.236-3.356l.17-.388a167.143 167.143 0 0 0 2.148-5.16c.791-2.013 1.334-3.578 1.538-4.503.1-.394.193-1.213.271-2.326.046-.653.066-1.012.125-2.152 0-.08-.029-.123-.022-.12l-7.455-2.136c-1.376-.424-2.17-1.88-1.721-3.207.432-1.278 1.858-1.929 3.215-1.57l.29.089.795.24c.835.247 1.707.495 2.572.725.447.12.882.232 1.3.335 1.816.448 3.22.704 3.984.704.767 0 2.196-.266 4.05-.73.416-.105.848-.217 1.292-.337a100.042 100.042 0 0 0 3.42-.993l.335-.104c1.325-.348 2.779.436 3.133 1.747.357 1.32-.443 2.762-1.743 3.104l-7.358 2.182c-.04.014-.056.035-.052.09.06 1.18.08 1.54.126 2.193.078 1.112.17 1.931.276 2.35.199.9.742 2.465 1.533 4.478a161.185 161.185 0 0 0 2.148 5.16l.161.37c.6 1.268.037 2.75-1.208 3.364a2.41 2.41 0 0 1-1.073.26c-1.018 0-1.958-.576-2.278-1.455l-2.752-5.663-2.647 5.593z"/>
    </g>
</svg>
