<svg xmlns="http://www.w3.org/2000/svg" width="350" height="80" viewBox="0 0 350 80">
    <g fill="none" fill-rule="evenodd">
        <g fill-rule="nonzero">
            <path fill="#000" d="M0 0h132v38H0z"/>
            <path fill="#FFF" d="M126.06 27.294a2.5 2.5 0 0 1-.697.11c-.77 0-1.136-.329-1.136-1.279V19c0-3.763-3.007-5.59-6.564-5.59-2.713 0-4.18.328-7.076 1.498l-.587 3.8 3.777.402.55-1.864c.77-.402 1.54-.475 2.53-.475 2.676 0 2.713 2.01 2.713 3.69v.549c-.843-.11-1.797-.147-2.713-.147-3.777 0-7.7.95-7.7 5.006 0 3.435 2.713 4.714 5.096 4.714 2.677 0 4.364-1.608 5.317-3.289.22 2.01 1.43 3.289 3.63 3.289a6.41 6.41 0 0 0 2.97-.768l-.11-2.52zm-10.12-.11c-1.43 0-1.943-.84-1.943-1.9 0-1.79 1.466-2.265 3.153-2.265.77 0 1.613.11 2.383.22-.11 2.74-1.906 3.946-3.593 3.946zM109.597 5.08l-7.15 25.102H97.79l7.15-25.102h4.657zm-9.607 0L92.84 30.18h-4.657l7.15-25.102h4.657zm-19.8 8.66h4.95v5.919h-4.95v-5.92zm0 10.56h4.95v5.918h-4.95v-5.919zm-7.223-.22l3.74.365-1.027 5.773H61.27l-.477-2.484 9.094-10.414h-5.17l-.734 2.558-3.41-.365.587-5.774h14.483l.367 2.485-9.167 10.414h5.354l.77-2.558zm-23.65-10.67c-5.94 0-8.874 3.983-8.874 8.806 0 5.262 3.52 8.368 8.617 8.368 5.28 0 9.093-3.325 9.093-8.587 0-4.604-2.896-8.586-8.836-8.586zm-.11 13.52c-2.567 0-3.887-2.192-3.887-5.042 0-3.106 1.503-4.897 3.923-4.897 2.237 0 4.034 1.498 4.034 4.823 0 3.18-1.614 5.116-4.07 5.116zM36.19 26.6h2.2v3.58h-6.893v-9.243c0-2.85-.954-3.947-2.824-3.947-2.273 0-3.19 1.608-3.19 3.91v5.737h2.2v3.58h-6.93v-9.28c0-2.85-.953-3.947-2.823-3.947-2.273 0-3.19 1.608-3.19 3.91v5.737h3.153v3.58H7.847v-3.58h2.2v-9.318h-2.2v-3.58h6.93v2.484c.99-1.754 2.713-2.813 5.023-2.813 2.383 0 4.583 1.132 5.39 3.544.917-2.192 2.787-3.544 5.39-3.544 2.97 0 5.683 1.79 5.683 5.7v7.49h-.073z"/>
        </g>
        <text fill="#000" font-family="Zilla Slab Highlight" font-size="32.688" letter-spacing="-.409" transform="translate(-.75 41)">
            <tspan x="1.226" y="30.591"> Internet Health Quilt </tspan>
        </text>
    </g>
</svg>
